<svg xmlns="http://www.w3.org/2000/svg" xmlns:svg="http://www.w3.org/2000/svg" xmlns:xlink="http://www.w3.org/1999/xlink" version="1.0" height="426pt" width="800pt" viewBox="255 -43 808 432" ><defs><style type="text/css">
            @font-face {
                font-family: 'lt_regular';
                src: url('https://app.creately.com/diagram/assets/fonts/lato/lt-regular-webfont.woff2') format('woff2'),
                    url('https://app.creately.com/diagram/assets/fonts/lato/lt-regular-webfont.woff') format('woff');
                font-weight: normal;
                font-style: normal;
            }
            @font-face {
                font-family: 'noto_regular';
                src: url('https://app.creately.com/diagram/assets/fonts/noto/noto-regular.woff') format('woff'),
                     url('https://app.creately.com/diagram/assets/fonts/noto/noto-regular.woff2') format('woff2');
                font-weight: normal;
                font-style: normal;
            }
        p {
            margin: 0;
        }
        </style></defs><defs><style>
            span{ display: inline-block; }
        </style></defs><g id="wlUDeF8RgE6"><g transform="translate(260 -31.5)"><rect x="0" y="0" width="180" height="160" rx="2" ry="2" fill="rgb(146,183,62)" stroke="#f8f9f5" stroke-width="2" stroke-linecap="round" stroke-linejoin="round" stroke-dasharray="0 0"/><path d="M 0,29 L 180,29 M 0,75 L 180,75" fill="rgb(146,183,62)" stroke="#f8f9f5" stroke-width="2" stroke-linecap="round" stroke-linejoin="round" stroke-dasharray="0 0"/></g><g transform="translate(321.5, -26.5) rotate(0, 28.5, 0)" width="57" height="19"><text text-decoration="none" x="0" fill="#ffffff" font-size="10pt" font-family="lt_regular"  y="15">Customer</text><text text-decoration="none" x="57" fill="#4b4b4b" font-size="10pt" font-family="noto_regular"  y="15"></text></g><g transform="translate(270, 2.5) rotate(0, 0, 0)" width="122" height="36"><text text-decoration="none" x="0" fill="#ffffff" font-size="10pt" font-family="lt_regular"  y="14">CustomerID:Number</text><text text-decoration="none" x="121" fill="#ffffff" font-size="10pt" font-family="lt_regular"  y="14"></text><text text-decoration="none" x="61" fill="#4b4b4b" font-size="10pt" font-family="noto_regular"  y="33"></text></g><g transform="translate(270, 48.5) rotate(0, 0, 0)" width="89" height="19"><text text-decoration="none" x="0" fill="#ffffff" font-size="10pt" font-family="lt_regular"  y="15">AskToRentCar()</text><text text-decoration="none" x="90" fill="#4b4b4b" font-size="10pt" font-family="noto_regular"  y="15"></text></g></g><g id="tLZXBPs3kJN"><g transform="translate(670 -40)"><rect x="0" y="0" width="180" height="177" rx="2" ry="2" fill="rgb(146,183,62)" stroke="#f8f9f5" stroke-width="2" stroke-linecap="round" stroke-linejoin="round" stroke-dasharray="0 0"/><path d="M 0,29 L 180,29 M 0,58 L 180,58" fill="rgb(146,183,62)" stroke="#f8f9f5" stroke-width="2" stroke-linecap="round" stroke-linejoin="round" stroke-dasharray="0 0"/></g><g transform="translate(680, -35) rotate(0, 0, 0)" width="28" height="19"><text text-decoration="none" x="0" fill="#ffffff" font-size="10pt" font-family="lt_regular"  y="15">Staff</text><text text-decoration="none" x="28" fill="#4b4b4b" font-size="10pt" font-family="noto_regular"  y="15"></text></g><g transform="translate(680, -6) rotate(0, 0, 0)" width="71" height="19"><text text-decoration="none" x="0" fill="#ffffff" font-size="10pt" font-family="lt_regular"  y="15">ID&#160;</text><text text-decoration="none" x="17" fill="#ffffff" font-size="10pt" font-family="lt_regular"  y="15">:&#160;</text><text text-decoration="none" x="23" fill="#ffffff" font-size="10pt" font-family="lt_regular"  y="15">Number</text><text text-decoration="none" x="70" fill="#4b4b4b" font-size="10pt" font-family="noto_regular"  y="15"></text></g><g transform="translate(680, 23) rotate(0, 0, 0)" width="132" height="109"><text text-decoration="none" x="0" fill="#ffffff" font-size="10pt" font-family="lt_regular"  y="14">SearchCars()</text><text text-decoration="none" x="70" fill="#ffffff" font-size="10pt" font-family="lt_regular"  y="14"></text><text text-decoration="none" x="0" fill="#ffffff" font-size="10pt" font-family="lt_regular"  y="32">AddCar()</text><text text-decoration="none" x="49" fill="#ffffff" font-size="10pt" font-family="lt_regular"  y="32"></text><text text-decoration="none" x="0" fill="#ffffff" font-size="10pt" font-family="lt_regular"  y="50">makeCarRented()</text><text text-decoration="none" x="98" fill="#ffffff" font-size="10pt" font-family="lt_regular"  y="50"></text><text text-decoration="none" x="0" fill="#ffffff" font-size="10pt" font-family="lt_regular"  y="68">UnRentCar()</text><text text-decoration="none" x="70" fill="#ffffff" font-size="10pt" font-family="lt_regular"  y="68"></text><text text-decoration="none" x="0" fill="#ffffff" font-size="10pt" font-family="lt_regular"  y="86">GenerateReport()</text><text text-decoration="none" x="99" fill="#ffffff" font-size="10pt" font-family="lt_regular"  y="86"></text><text text-decoration="none" x="0" fill="#ffffff" font-size="10pt" font-family="lt_regular"  y="105">CalculateRentingCost()</text><text text-decoration="none" x="129" fill="#4b4b4b" font-size="10pt" font-family="noto_regular"  y="105"></text></g></g><g id="aTEAp4I9h3W"><g transform="translate(260 210)"><rect x="0" y="0" width="180" height="176" rx="2" ry="2" fill="rgb(146,183,62)" stroke="#f8f9f5" stroke-width="2" stroke-linecap="round" stroke-linejoin="round" stroke-dasharray="0 0"/><path d="M 0,29 L 180,29 M 0,148 L 180,148" fill="rgb(146,183,62)" stroke="#f8f9f5" stroke-width="2" stroke-linecap="round" stroke-linejoin="round" stroke-dasharray="0 0"/></g><g transform="translate(270, 215) rotate(0, 0, 0)" width="20" height="19"><text text-decoration="none" x="0" fill="#ffffff" font-size="10pt" font-family="lt_regular"  y="15">Car</text><text text-decoration="none" x="20" fill="#4b4b4b" font-size="10pt" font-family="noto_regular"  y="15"></text></g><g transform="translate(270, 244) rotate(0, 0, 0)" width="134" height="109"><text text-decoration="none" x="0" fill="#ffffff" font-size="10pt" font-family="lt_regular"  y="14">PlateNum:Number</text><text text-decoration="none" x="107" fill="#ffffff" font-size="10pt" font-family="lt_regular"  y="14"></text><text text-decoration="none" x="0" fill="#ffffff" font-size="10pt" font-family="lt_regular"  y="32">Make:String</text><text text-decoration="none" x="69" fill="#ffffff" font-size="10pt" font-family="lt_regular"  y="32"></text><text text-decoration="none" x="0" fill="#ffffff" font-size="10pt" font-family="lt_regular"  y="50">Model:String</text><text text-decoration="none" x="73" fill="#ffffff" font-size="10pt" font-family="lt_regular"  y="50"></text><text text-decoration="none" x="0" fill="#ffffff" font-size="10pt" font-family="lt_regular"  y="68">ManfactruingYear:Date</text><text text-decoration="none" x="133" fill="#ffffff" font-size="10pt" font-family="lt_regular"  y="68"></text><text text-decoration="none" x="0" fill="#ffffff" font-size="10pt" font-family="lt_regular"  y="86">Color:String</text><text text-decoration="none" x="68" fill="#ffffff" font-size="10pt" font-family="lt_regular"  y="86"></text><text text-decoration="none" x="0" fill="#ffffff" font-size="10pt" font-family="lt_regular"  y="105">--</text><text text-decoration="none" x="10" fill="#4b4b4b" font-size="10pt" font-family="noto_regular"  y="105"></text></g><g transform="translate(265, 363) rotate(0, 0, 0)" width="0" height="18"><text text-decoration="none" x="0" fill="#4b4b4b" font-size="10pt" font-family="noto_regular"  y="15"></text></g></g><g id="2c874KghBQE"><g transform="translate(550 210.00000000000006)"><rect x="0" y="0" width="180" height="160" rx="2" ry="2" fill="rgb(146,183,62)" stroke="#f8f9f5" stroke-width="2" stroke-linecap="round" stroke-linejoin="round" stroke-dasharray="0 0"/><path d="M 0,29 L 180,29 M 0,112 L 180,112" fill="rgb(146,183,62)" stroke="#f8f9f5" stroke-width="2" stroke-linecap="round" stroke-linejoin="round" stroke-dasharray="0 0"/></g><g transform="translate(560, 215.00000000000006) rotate(0, 0, 0)" width="57" height="19"><text text-decoration="none" x="0" fill="#ffffff" font-size="10pt" font-family="lt_regular"  y="15">RentalCar</text><text text-decoration="none" x="56" fill="#4b4b4b" font-size="10pt" font-family="noto_regular"  y="15"></text></g><g transform="translate(560, 244.00000000000006) rotate(0, 0, 0)" width="150" height="73"><text text-decoration="none" x="0" fill="#ffffff" font-size="10pt" font-family="lt_regular"  y="14">Rented:Boolean</text><text text-decoration="none" x="89" fill="#ffffff" font-size="10pt" font-family="lt_regular"  y="14"></text><text text-decoration="none" x="0" fill="#ffffff" font-size="10pt" font-family="lt_regular"  y="32">RentFrom:Date</text><text text-decoration="none" x="88" fill="#ffffff" font-size="10pt" font-family="lt_regular"  y="32"></text><text text-decoration="none" x="0" fill="#ffffff" font-size="10pt" font-family="lt_regular"  y="50">RentTo:Date</text><text text-decoration="none" x="73" fill="#ffffff" font-size="10pt" font-family="lt_regular"  y="50"></text><text text-decoration="none" x="0" fill="#ffffff" font-size="10pt" font-family="lt_regular"  y="69">RentPricePerDay:Number</text><text text-decoration="none" x="149" fill="#4b4b4b" font-size="10pt" font-family="noto_regular"  y="69"></text></g><g transform="translate(555, 327.00000000000006) rotate(0, 0, 0)" width="0" height="18"><text text-decoration="none" x="0" fill="#4b4b4b" font-size="10pt" font-family="noto_regular"  y="15"></text></g></g><g id="uhtnE7ANVRh"><g transform="translate(940 150)"><rect x="0" y="0" width="120" height="60" fill="rgb(146,183,62)" stroke="#f8f9f5" stroke-width="2" stroke-linecap="round" stroke-linejoin="round" stroke-dasharray="0 0"/></g><g transform="translate(950, 170.5) rotate(0, 0, 9.5)" width="46" height="19"><text text-decoration="none" x="0" fill="#ffffff" font-size="10pt" font-family="lt_regular"  y="15">CarsList</text><text text-decoration="none" x="47" fill="#4b4b4b" font-size="10pt" font-family="noto_regular"  y="15"></text></g></g><g id="SCUB93Bgdfr"><mask id="4bb30" x="426" y="35" width="258" height="28" maskUnits="userSpaceOnUse"><rect x="426" y="35" width="258" height="28" fill="white" /><rect x="457" y="36.5" width="26" height="25" fill="black" /><rect x="626" y="36.5" width="28" height="25" fill="black" /><rect x="486.5" y="27.5" width="97" height="43" fill="black" /></mask><g mask="url(#4bb30)"><path d="M 440,49 L 670,49" fill="none" stroke="#8DA13B" stroke-width="2" stroke-linecap="round" stroke-linejoin="round" stroke-dasharray="0 0"/></g><g transform="translate(460, 39.5)" width="20" height="19"><text text-decoration="none" x="0" fill="#110e0e" font-size="10pt" font-family="lt_regular"  y="15">1..*</text><text text-decoration="none" x="20" fill="#4b4b4b" font-size="10pt" font-family="noto_regular"  y="15"></text></g><g transform="translate(629, 39.5)" width="22" height="19"><text text-decoration="none" x="0" fill="#110e0e" font-size="10pt" font-family="lt_regular"  y="15">0..1</text><text text-decoration="none" x="22" fill="#4b4b4b" font-size="10pt" font-family="noto_regular"  y="15"></text></g><g transform="translate(489.5, 30.5)" width="91" height="37"><text text-decoration="none" x="0" fill="#110e0e" font-size="10pt" font-family="lt_regular"  y="14">Accesses</text><text text-decoration="none" x="53" fill="#110e0e" font-size="10pt" font-family="lt_regular"  y="14"></text><text text-decoration="none" x="0" fill="#110e0e" font-size="10pt" font-family="lt_regular"  y="33">Request&#160;</text><text text-decoration="none" x="50" fill="#110e0e" font-size="10pt" font-family="lt_regular"  y="33">renting</text><text text-decoration="none" x="91" fill="#4b4b4b" font-size="10pt" font-family="noto_regular"  y="33"></text></g></g><g id="eSEmlsrD3B6"><mask id="942f5" x="836" y="79" width="178" height="85" maskUnits="userSpaceOnUse"><rect x="836" y="79" width="178" height="85" fill="white" /><rect x="866.9999583334202" y="80.4500000694443" width="26" height="25" fill="black" /><rect x="986" y="107.5" width="28" height="25" fill="black" /><rect x="932.4946922605662" y="80.31334217956572" width="59" height="25" fill="black" /></mask><g mask="url(#942f5)"><path d="M 850,93 L 1000,92.75 L 1000,150" fill="none" stroke="#8DA13B" stroke-width="2" stroke-linecap="round" stroke-linejoin="round" stroke-dasharray="0 0"/></g><g transform="translate(869.9999583334202, 83.4500000694443)" width="20" height="19"><text text-decoration="none" x="0" fill="#110e0e" font-size="10pt" font-family="lt_regular"  y="15">1..*</text><text text-decoration="none" x="20" fill="#4b4b4b" font-size="10pt" font-family="noto_regular"  y="15"></text></g><g transform="translate(989, 110.5)" width="22" height="19"><text text-decoration="none" x="0" fill="#110e0e" font-size="10pt" font-family="lt_regular"  y="15">1..1</text><text text-decoration="none" x="22" fill="#4b4b4b" font-size="10pt" font-family="noto_regular"  y="15"></text></g><g transform="translate(935.4946922605662, 83.31334217956572)" width="53" height="19"><text text-decoration="none" x="0" fill="#110e0e" font-size="10pt" font-family="lt_regular"  y="15">Accesses</text><text text-decoration="none" x="53" fill="#4b4b4b" font-size="10pt" font-family="noto_regular"  y="15"></text></g></g><g id="B1R6r6aj5xm"><mask id="a2e33" x="716" y="196" width="298" height="108" maskUnits="userSpaceOnUse"><rect x="716" y="196" width="298" height="108" fill="white" /><rect x="969.0806451612904" y="277.50000000000006" width="57" height="25" fill="black" /></mask><g mask="url(#a2e33)"><path d="M 730,290 L 1000,290.00000000000006 L 1000,210" fill="none" stroke="#8DA13B" stroke-width="2" stroke-linecap="round" stroke-linejoin="round" stroke-dasharray="0 0"/></g><g transform="translate(972.0806451612904, 280.50000000000006)" width="51" height="19"><text text-decoration="none" x="0" fill="#110e0e" font-size="10pt" font-family="lt_regular"  y="15">Contains</text><text text-decoration="none" x="50" fill="#4b4b4b" font-size="10pt" font-family="noto_regular"  y="15"></text></g></g><g id="6SPmsLjSY6s"><mask id="3ee32" x="716" y="112" width="296" height="152" maskUnits="userSpaceOnUse"><rect x="716" y="112" width="296" height="152" fill="white" /><rect x="851" y="203.49798583984378" width="26" height="25" fill="black" /></mask><g mask="url(#3ee32)"><path d="M 730,250 L 864,250.00000000000006 L 864,188 L 864,126 L 998,126" fill="none" stroke="#8DA13B" stroke-width="2" stroke-linecap="round" stroke-linejoin="round" stroke-dasharray="0 0"/></g><g transform="translate(854, 206.49798583984378)" width="20" height="19"><text text-decoration="none" x="0" fill="#110e0e" font-size="10pt" font-family="lt_regular"  y="15">1..*</text><text text-decoration="none" x="20" fill="#4b4b4b" font-size="10pt" font-family="noto_regular"  y="15"></text></g></g></svg>